<svg fill="black" xmlns="http://www.w3.org/2000/svg" version="1.1" xmlns:xlink="http://www.w3.org/1999/xlink" xmlns:svgjs="http://svgjs.dev/svgjs" width="500" height="500" viewBox="0 0 1000 623"><g transform="matrix(1,0,0,1,-0.6060606060606233,65.70465873307978)"><svg viewBox="0 0 396 247" data-background-color="#1f2d5a" preserveAspectRatio="xMidYMid meet" height="623" width="1000" xmlns="http://www.w3.org/2000/svg" xmlns:xlink="http://www.w3.org/1999/xlink"><defs></defs><g id="tight-bounds" transform="matrix(1,0,0,1,0.2400000000000091,-0.09999999999999432)"><svg viewBox="0 0 395.52 247.2" height="247.2" width="395.52"><g><svg></svg></g><g><svg viewBox="0 0 395.52 247.2" height="247.2" width="395.52"><g transform="matrix(1,0,0,1,75.54432,102.36561544401545)"><svg viewBox="0 0 244.43135999999998 42.4687691119691" height="42.4687691119691" width="244.43135999999998"><g><svg viewBox="0 0 244.43135999999998 42.4687691119691" height="42.4687691119691" width="244.43135999999998"><g><svg viewBox="0 0 244.43135999999998 42.4687691119691" height="42.4687691119691" width="244.43135999999998"><g><svg viewBox="0 0 244.43135999999998 42.4687691119691" height="42.4687691119691" width="244.43135999999998"><g><svg viewBox="0 0 244.43135999999998 42.4687691119691" height="42.4687691119691" width="244.43135999999998"><g><svg viewBox="0 0 244.43135999999998 42.4687691119691" height="42.4687691119691" width="244.43135999999998"><g transform="matrix(1,0,0,1,0,0)"><svg width="244.43135999999998" viewBox="2.049999952316284 -35.5 207.1699981689453 36" height="42.4687691119691" data-palette-color="#fbfbfb"><path d="M2.05 0L2.05-35 10.2-35Q14.45-35 16.4-33.02 18.35-31.05 18.35-26.95L18.35-26.95 18.35-24.8Q18.35-19.35 14.75-17.9L14.75-17.9 14.75-17.8Q16.75-17.2 17.57-15.35 18.4-13.5 18.4-10.4L18.4-10.4 18.4-4.25Q18.4-2.75 18.5-1.83 18.6-0.9 19 0L19 0 13.4 0Q13.1-0.85 13-1.6 12.9-2.35 12.9-4.3L12.9-4.3 12.9-10.7Q12.9-13.1 12.13-14.05 11.35-15 9.45-15L9.45-15 7.55-15 7.55 0 2.05 0ZM7.55-20L9.55-20Q11.2-20 12.03-20.85 12.85-21.7 12.85-23.7L12.85-23.7 12.85-26.4Q12.85-28.3 12.18-29.15 11.5-30 10.05-30L10.05-30 7.55-30 7.55-20ZM22.2 0L22.2-35 37.2-35 37.2-30 27.7-30 27.7-20.75 35.25-20.75 35.25-15.75 27.7-15.75 27.7-5 37.2-5 37.2 0 22.2 0ZM48.15 0.5Q44.15 0.5 42.05-1.78 39.95-4.05 39.95-8.3L39.95-8.3 39.95-26.7Q39.95-30.95 42.05-33.23 44.15-35.5 48.15-35.5L48.15-35.5Q52.15-35.5 54.25-33.23 56.34-30.95 56.34-26.7L56.34-26.7 56.34-23.7 51.15-23.7 51.15-27.05Q51.15-30.5 48.3-30.5L48.3-30.5Q45.45-30.5 45.45-27.05L45.45-27.05 45.45-7.9Q45.45-4.5 48.3-4.5L48.3-4.5Q51.15-4.5 51.15-7.9L51.15-7.9 51.15-14.75 48.4-14.75 48.4-19.75 56.34-19.75 56.34-8.3Q56.34-4.05 54.25-1.78 52.15 0.5 48.15 0.5L48.15 0.5ZM59.89 0L59.89-35 65.39-35 65.39 0 59.89 0ZM76.64 0.5Q72.64 0.5 70.59-1.78 68.54-4.05 68.54-8.3L68.54-8.3 68.54-10.3 73.74-10.3 73.74-7.9Q73.74-4.5 76.59-4.5L76.59-4.5Q77.99-4.5 78.72-5.33 79.44-6.15 79.44-8L79.44-8Q79.44-10.2 78.44-11.88 77.44-13.55 74.74-15.9L74.74-15.9Q71.34-18.9 69.99-21.33 68.64-23.75 68.64-26.8L68.64-26.8Q68.64-30.95 70.74-33.23 72.84-35.5 76.84-35.5L76.84-35.5Q80.79-35.5 82.81-33.23 84.84-30.95 84.84-26.7L84.84-26.7 84.84-25.25 79.64-25.25 79.64-27.05Q79.64-28.85 78.94-29.68 78.24-30.5 76.89-30.5L76.89-30.5Q74.14-30.5 74.14-27.15L74.14-27.15Q74.14-25.25 75.16-23.6 76.19-21.95 78.89-19.6L78.89-19.6Q82.34-16.6 83.64-14.15 84.94-11.7 84.94-8.4L84.94-8.4Q84.94-4.1 82.81-1.8 80.69 0.5 76.64 0.5L76.64 0.5ZM92.39 0L92.39-30 86.64-30 86.64-35 103.64-35 103.64-30 97.89-30 97.89 0 92.39 0ZM106.28 0L106.28-35 114.44-35Q118.69-35 120.64-33.02 122.59-31.05 122.59-26.95L122.59-26.95 122.59-24.8Q122.59-19.35 118.98-17.9L118.98-17.9 118.98-17.8Q120.98-17.2 121.81-15.35 122.64-13.5 122.64-10.4L122.64-10.4 122.64-4.25Q122.64-2.75 122.73-1.83 122.84-0.9 123.23 0L123.23 0 117.64 0Q117.34-0.85 117.23-1.6 117.14-2.35 117.14-4.3L117.14-4.3 117.14-10.7Q117.14-13.1 116.36-14.05 115.59-15 113.69-15L113.69-15 111.78-15 111.78 0 106.28 0ZM111.78-20L113.78-20Q115.44-20 116.26-20.85 117.09-21.7 117.09-23.7L117.09-23.7 117.09-26.4Q117.09-28.3 116.41-29.15 115.73-30 114.28-30L114.28-30 111.78-30 111.78-20ZM124.98 0L130.68-35 138.13-35 143.83 0 138.33 0 137.33-6.95 137.33-6.85 131.08-6.85 130.08 0 124.98 0ZM131.73-11.6L136.68-11.6 134.23-28.9 134.13-28.9 131.73-11.6ZM148.48 0L148.48-30 142.73-30 142.73-35 159.73-35 159.73-30 153.98-30 153.98 0 148.48 0ZM162.38 0L162.38-35 167.88-35 167.88 0 162.38 0ZM179.92 0.5Q175.87 0.5 173.72-1.8 171.57-4.1 171.57-8.3L171.57-8.3 171.57-26.7Q171.57-30.9 173.72-33.2 175.87-35.5 179.92-35.5L179.92-35.5Q183.97-35.5 186.12-33.2 188.27-30.9 188.27-26.7L188.27-26.7 188.27-8.3Q188.27-4.1 186.12-1.8 183.97 0.5 179.92 0.5L179.92 0.5ZM179.92-4.5Q182.77-4.5 182.77-7.95L182.77-7.95 182.77-27.05Q182.77-30.5 179.92-30.5L179.92-30.5Q177.07-30.5 177.07-27.05L177.07-27.05 177.07-7.95Q177.07-4.5 179.92-4.5L179.92-4.5ZM191.97 0L191.97-35 198.87-35 204.22-14.05 204.32-14.05 204.32-35 209.22-35 209.22 0 203.57 0 196.97-25.55 196.87-25.55 196.87 0 191.97 0Z" opacity="1" transform="matrix(1,0,0,1,0,0)" fill="black" class="undefined-text-0" data-fill-palette-color="primary" id="text-0"></path></svg></g></svg></g></svg></g></svg></g><g></g></svg></g></svg></g></svg></g><g><path d="M79.61 92.34A122.216 122.216 0 0 1 315.91 92.34L312.08 92.34A118.386 118.386 0 0 0 83.44 92.34L79.61 92.34M79.61 154.86A122.216 122.216 0 0 0 315.91 154.86L312.08 154.86A118.386 118.386 0 0 1 83.44 154.86L79.61 154.86" fill="black" stroke="transparent" data-fill-palette-color="tertiary"></path></g></svg></g></svg><rect width="395.52" height="247.2" fill="black" stroke="none" visibility="hidden"></rect></g></svg></g></svg>